<svg xmlns="http://www.w3.org/2000/svg" viewBox="0 0 5 3" width="18" height="12" aria-hidden="true">
  <title>Flag of Uzbekistan</title>
  <desc>Horizontal tricolour of blue, white and green with red fimbriations, crescent and twelve stars.</desc>
  <defs>
    <clipPath id="c">
      <rect width="5" height="3" rx="0.2" ry="0.2"/>
    </clipPath>
  </defs>
  <g clip-path="url(#c)">
    <rect width="5" height="3" fill="#1eb53a"/>
    <rect width="5" height="2" fill="#fff"/>
    <rect width="5" height="1" fill="#0099b5"/>
    <rect y="1" width="5" height="0.1" fill="#ce1126"/>
    <rect y="1.9" width="5" height="0.1" fill="#ce1126"/>
    <g transform="translate(0.6,0.5) scale(0.12)" fill="#fff">
      <path d="M10 0a6 6 0 1 0 0 12 6 6 0 1 1 0-12z"/>
      <g transform="translate(18,0) scale(0.9)">
        <g id="s">
          <g id="t">
            <path d="M0-6L1.763-0.545L-1.763-0.545Z"/>
            <use href="#t" transform="rotate(72)"/>
            <use href="#t" transform="rotate(144)"/>
            <use href="#t" transform="rotate(216)"/>
            <use href="#t" transform="rotate(288)"/>
          </g>
        </g>
        <use href="#s" transform="translate(0,0) scale(0.7)"/>
        <use href="#s" transform="translate(8,0) scale(0.7)"/>
        <use href="#s" transform="translate(16,0) scale(0.7)"/>
        <use href="#s" transform="translate(24,0) scale(0.7)"/>
        <use href="#s" transform="translate(4,6) scale(0.7)"/>
        <use href="#s" transform="translate(12,6) scale(0.7)"/>
        <use href="#s" transform="translate(20,6) scale(0.7)"/>
        <use href="#s" transform="translate(0,12) scale(0.7)"/>
        <use href="#s" transform="translate(8,12) scale(0.7)"/>
        <use href="#s" transform="translate(16,12) scale(0.7)"/>
        <use href="#s" transform="translate(24,12) scale(0.7)"/>
        <use href="#s" transform="translate(12,18) scale(0.7)"/>
        <use href="#s" transform="translate(20,18) scale(0.7)"/>
      </g>
    </g>
  </g>
</svg>